<?xml version="1.0" standalone="no"?>
<!DOCTYPE svg PUBLIC "-//W3C//DTD SVG 20010904//EN"
 "http://www.w3.org/TR/2001/REC-SVG-20010904/DTD/svg10.dtd">
<svg version="1.0" xmlns="http://www.w3.org/2000/svg"
 width="500.000000pt" height="500.000000pt" viewBox="0 0 500.000000 500.000000"
 preserveAspectRatio="xMidYMid meet">
<metadata>
Created by potrace 1.11, written by Peter Selinger 2001-2013
</metadata>
<g transform="translate(0.000000,500.000000) scale(0.100000,-0.100000)"
fill="#000000" stroke="none">
<path d="M2939 4800 c-347 -40 -663 -244 -846 -546 -93 -154 -163 -390 -163
-552 l0 -49 94 -7 c362 -25 710 -247 895 -570 82 -144 137 -317 148 -470 l6
-89 91 6 c393 25 756 273 936 641 275 559 50 1234 -506 1518 -104 53 -180 80
-284 102 -96 19 -274 27 -371 16z"/>
</g>
</svg>
